<?xml version="1.0" encoding="utf-8"?>
<!-- Generator: Adobe Illustrator 21.1.0, SVG Export Plug-In . SVG Version: 6.00 Build 0)  -->
<svg version="1.1" id="studio_SGN" xmlns="http://www.w3.org/2000/svg" xmlns:xlink="http://www.w3.org/1999/xlink" x="0px" y="0px"
	 viewBox="0 0 350 350" style="enable-background:new 0 0 350 350;" xml:space="preserve">
<style type="text/css">
	.st0{fill:#F2EACE;}
	.st1{fill:#262626;}
</style>
<circle id="circle" class="st0" cx="175" cy="175" r="174.8"/>
<g id="SGN_1_">
	<path id="n" class="st1" d="M234.8,271.9V109c0-3.4,2.4-4.6,5-4.5c2.7,0.1,4.2,1.9,4.2,4.5v162.9h23V100.7c0-4.4-2.6-9.4-6.4-12.3
		c-3.9-2.9-6.4-3.8-12.3-3c-3,0.4-5.8,1.4-8.2,3.2c-2.3,1.7-4.1,4.1-5.3,6.7v-7.9h-23v184.6H234.8z"/>
	<path id="g" class="st1" d="M182.2,87.3v7c-3.4-5.3-7-7.5-9.9-8.3c-2.8-0.7-5.1-1-7.9-1c-6.5-0.1-11,2.6-14.3,7.3
		c-1.8,2.6-3,5.5-2.9,8.6v155.5c0,0,0,3.8,0.2,5.1c1.6,7.3,7,10.8,14.4,10.8c1.5,0,3.2-0.1,4.5-0.2c1.3-0.2,2.7-0.4,5.6-1.4
		c3.2-1.2,6-3,8.1-5.7v22.4c0,1.9-1,4.2-4.9,4.2c-2.6,0-4.9-0.8-4.9-3.8l0-6.3c0,0-3.6,0.9-3.8,0.9c-1.5,0.2-3,0.3-4.6,0.3
		c-12.3,0-14.6-8.1-14.6-8.1v18.1c0,6,1.5,9,4.6,11.4c3.1,2.4,8.5,5.2,16.8,5.8c1.4,0.1,7.4,0.1,8.9,0.1c8.9,0.1,15.4-1.7,19.5-5.1
		c4-3.4,6.1-8.4,6.1-15V87.3H182.2z M179.9,250.3c0,3-1.8,4.7-5.5,4.5c-3-0.2-4.4-1.9-4.4-4.5V107.7c0-2.6,1.9-4.1,4-4.5
		c1.3-0.2,3.1,0.2,4.1,1c1,0.8,1.7,1.9,1.7,3.2V250.3z"/>
	<path id="s" class="st1" d="M89.5,267.6c4.4,3.3,10.7,4.9,19,4.9c4.8,0,7.8-0.2,8.9-0.4c7.7-0.9,13-2.9,16.1-5.7
		c3.1-2.8,4.6-6.8,4.6-12.1v-48.8c0-3.1-0.3-6.2-1-8.2c-0.7-1.6-1.5-3.7-2.8-5.5L106,150.8v-42.1c0-3.4,1.3-5.1,4.6-5.1
		c3.1,0,4.6,1.5,4.6,4.5v40.8l23,33.2v-76.2c0-13.8-9.6-20.7-28.7-20.7c-8.9,0-15.6,1.6-19.9,4.8S83,97.5,83,103.3v47.5
		c0.2,2.8,0.9,5.5,2.3,8l28.3,42.9c1.4,2.4,1.6,4.5,1.6,6.4v41.9c0,2.8-1.5,4.2-4.5,4.2c-3.2,0-4.8-1.5-4.8-4.5v-42.8l-23-35.4v83
		C82.9,259.6,85.3,264.6,89.5,267.6z"/>
</g>
<g id="studio">
	<path id="s_1_" class="st1" d="M121.6,74.4c3.5,0,6.3-2,6.3-5.5c0-3.1-2.3-4.3-5-5.7c-2.1-1.1-3.6-1.7-3.6-2.9
		c0-1.1,0.9-1.9,2.3-1.9c1.6,0.1,3.2,0.6,4.5,1.5l1.2-3.1c-1.7-1.1-3.7-1.6-5.7-1.6c-3.5,0-6.1,2-6.1,5.4c0,3.1,2.4,4.4,5,5.6
		c2.1,1,3.6,1.6,3.6,2.9c0,1.3-1,2-2.6,2c-1.9-0.1-3.8-0.8-5.3-2l-1.3,3C116.9,73.6,119.2,74.4,121.6,74.4z"/>
	<path id="t" class="st1" d="M141.9,74.6c1.1,0,2.3-0.2,3.3-0.8v-3.3c-0.7,0.3-1.4,0.5-2.1,0.5c-1,0.1-1.9-0.5-2-1.5
		c0-0.2,0-0.4,0-0.5v-9.9h4.2v-3.4h-4.2v-5h-4v5h-2v3.4h2v10.6C137.1,73.4,139.2,74.6,141.9,74.6L141.9,74.6z"/>
	<path id="u" class="st1" d="M160.4,74.6c2.1,0,4.1-1.2,5.1-3v2.7h4V55.8h-4V67c0,2.6-1.5,4.1-3.5,4.1s-3.3-1.5-3.3-4V55.8h-4v12.4
		C154.7,72.1,156.8,74.6,160.4,74.6z"/>
	<path id="d" class="st1" d="M191.3,49v9.5c-1.1-1.9-3.2-3.1-5.4-3.1c-3.8,0-7.3,3.2-7.3,9.4v0.4c0,6.2,3.5,9.4,7.3,9.4
		c2.3,0,4.3-1.3,5.4-3.3v3h4V49H191.3z M191.4,65.2c0,3.6-2.1,5.9-4.4,5.9v0c-2.4,0-4.4-2.3-4.4-5.9v-0.4c0-3.7,1.9-5.9,4.4-5.9
		c2.3,0,4.4,2.3,4.4,5.9V65.2z"/>
	<g id="i">
		<rect x="204.6" y="55.8" class="st1" width="4" height="18.5"/>
		<rect x="204.5" y="49.2" class="st1" width="4.2" height="3.9"/>
	</g>
	<g id="o">
		<polygon class="st1" points="226.4,74.4 226.4,74.4 226.4,74.4 		"/>
		<path class="st1" d="M226.5,55.2c-4.9,0-8.6,4-8.6,9.5V65c0,5.5,3.6,9.4,8.5,9.4c4.9,0,8.6-4,8.6-9.5v-0.3
			C235,59.1,231.4,55.2,226.5,55.2z M231,65c0,3.4-1.8,6-4.6,6h0c-2.7,0-4.7-2.6-4.7-6v-0.3c0-3.5,1.8-5.9,4.6-5.9
			c2.7,0,4.7,2.5,4.7,6V65z"/>
	</g>
</g>
</svg>
