<svg id="SGN" xmlns="http://www.w3.org/2000/svg" width="350" height="350" viewBox="0 0 350 350">
  <metadata><?xpacket begin="﻿" id="W5M0MpCehiHzreSzNTczkc9d"?>
<x:xmpmeta xmlns:x="adobe:ns:meta/" x:xmptk="Adobe XMP Core 5.6-c138 79.159824, 2016/09/14-01:09:01        ">
   <rdf:RDF xmlns:rdf="http://www.w3.org/1999/02/22-rdf-syntax-ns#">
      <rdf:Description rdf:about=""/>
   </rdf:RDF>
</x:xmpmeta>
                                                                                                    
                                                                                                    
                                                                                                    
                                                                                                    
                                                                                                    
                                                                                                    
                                                                                                    
                                                                                                    
                                                                                                    
                                                                                                    
                                                                                                    
                                                                                                    
                                                                                                    
                                                                                                    
                                                                                                    
                                                                                                    
                                                                                                    
                                                                                                    
                                                                                                    
                                                                                                    
                           
<?xpacket end="w"?></metadata>
<defs>
    <style>
      .cls-1 {
        fill: #f2eace;
      }

      .cls-2 {
        fill: #262626;
        fill-rule: evenodd;
      }
    </style>
  </defs>
  <circle id="circle_old" data-name="circle old" class="cls-1" cx="174.984" cy="174.953" r="174.766"/>
  <path id="n" class="cls-2" d="M233.282,264.822V105.656q0-4.978,4.984-4.361,4.044,0.628,4.049,4.361V264.822h22.427V97.558q-0.629-7.782-6.288-11.992t-14.148-2.959a16.708,16.708,0,0,0-8.016,3.115,17.07,17.07,0,0,0-5.188,6.541V85.41H210.856V264.822h22.426Z"/>
  <path id="g" class="cls-2" d="M174.382,248.937q-4.329-.672-4.327-4.361V105.345q0-3.738,4.327-4.361a4.72,4.72,0,0,1,3.665.934,3.759,3.759,0,0,1,1.664,3.115V244.576q0,4.367-5.329,4.361h0Zm-4.327,32.394q0,4.673,5.607,3.738,4.044-.629,4.049-4.05V257.97a15.451,15.451,0,0,1-8.1,5.451q-4.92,1.4-5.237,1.4a24.726,24.726,0,0,1-4.448.312q-10.8,0-13.34-10.59l-0.954-4.984V98.8a13.479,13.479,0,0,1,2.857-8.41q4.439-7.162,13.958-7.164a37.77,37.77,0,0,1,8.244,1.09q4.761,1.1,9.2,7.943V85.41h20.246v198.1q0,9.651-5.918,14.64t-19,4.984a36.455,36.455,0,0,1-4.361-.312,33.857,33.857,0,0,0-4.049-.311q-12.148-1.563-16.665-5.14t-4.516-12.3V265.081s2.265,10.2,14.294,10.2a24.836,24.836,0,0,0,4.448-.311c0.174,0,3.708-.921,3.708-0.921Z"/>
  <path id="s" class="cls-2" d="M91.41,262.175Q97.791,267,109.943,267q2.177,0,5.3-.312a34.318,34.318,0,0,0,3.427-.311q11.212-1.248,15.73-5.3t4.516-11.837V200.969a20.722,20.722,0,0,0-1.246-8.1,11.472,11.472,0,0,0-2.492-5.3l-3.129-4.662-22.359-32.4-2.234-3.115V106.279q0-4.358,4.361-4.984,4.673,0,4.672,4.361v39.835l22.427,32.439V103.476q0-20.244-28.033-20.246Q97.8,83.23,91.41,87.9t-6.385,13.067v46.367a19.068,19.068,0,0,0,2.214,7.782l1.265,2.176,3.8,5.6,19.209,29.138,3.378,5.017a21.56,21.56,0,0,1,1.591,6.254v41.573q0,4.067-4.36,4.064-4.672,0-4.673-4.361v-42.4L85.025,167.571v81.677A15.375,15.375,0,0,0,91.41,262.175Z"/>
  <path id="the_studio_of" data-name="the studio of" class="cls-2" d="M123.749,75.5c3.239,0,5.773-1.8,5.773-5.067,0-2.822-2.149-3.977-4.554-5.2-1.956-.994-3.3-1.539-3.3-2.63,0-1.026.8-1.7,2.149-1.7a8.587,8.587,0,0,1,4.136,1.347l1.091-2.822a10.072,10.072,0,0,0-5.195-1.507c-3.175,0-5.581,1.86-5.581,4.939,0,2.886,2.245,4.073,4.586,5.163,1.925,0.93,3.3,1.443,3.3,2.63,0,1.154-.93,1.86-2.374,1.86a8.715,8.715,0,0,1-4.842-1.8l-1.219,2.758A10.467,10.467,0,0,0,123.749,75.5Zm19.85-.064a5.748,5.748,0,0,0,3.014-.738V71.715a4.2,4.2,0,0,1-1.956.481,1.613,1.613,0,0,1-1.828-1.86V61.292h3.848V58.182h-3.848V53.6h-3.656v4.586h-1.828v3.111h1.828v9.749C139.173,74.377,141.065,75.435,143.6,75.435ZM160.754,75.5a5.32,5.32,0,0,0,4.65-2.79v2.469h3.656v-17H165.4V68.476c0,2.341-1.347,3.752-3.239,3.752s-3.015-1.347-3.015-3.688V58.182h-3.656V69.534C155.494,73.158,157.419,75.5,160.754,75.5Zm24.082,0a5.785,5.785,0,0,0,4.971-3.047v2.726h3.624V52.024h-3.624v8.723a5.859,5.859,0,0,0-4.971-2.886c-3.463,0-6.67,2.918-6.67,8.627V66.9C178.166,72.613,181.405,75.5,184.836,75.5Zm0.995-3.207c-2.213,0-4.009-2.085-4.009-5.452V66.52c0-3.431,1.764-5.452,4.009-5.452,2.148,0,4.04,2.116,4.04,5.452v0.353C189.871,70.208,187.979,72.292,185.831,72.292ZM203.4,75.178h3.655v-17H203.4v17Zm-0.065-19.466h3.849v-3.56h-3.849v3.56Zm20.779,19.819c4.522,0,7.889-3.688,7.889-8.691V66.552c0-5.035-3.335-8.659-7.825-8.659-4.521,0-7.889,3.688-7.889,8.691v0.289C216.293,71.907,219.629,75.531,224.118,75.531Zm0.064-3.175c-2.469,0-4.265-2.341-4.265-5.516V66.52c0-3.175,1.668-5.452,4.2-5.452,2.5,0,4.265,2.309,4.265,5.516V66.9C228.383,70.047,226.716,72.356,224.182,72.356Z"/>
</svg>
