<?xml version="1.0" encoding="utf-8"?>
<!-- Generator: Adobe Illustrator 21.1.0, SVG Export Plug-In . SVG Version: 6.00 Build 0)  -->
<svg version="1.1" id="SGN" xmlns="http://www.w3.org/2000/svg" xmlns:xlink="http://www.w3.org/1999/xlink" x="0px" y="0px"
	 viewBox="0 0 228 228" style="enable-background:new 0 0 228 228;" xml:space="preserve">
<style type="text/css">
	.st0{display:none;fill:#F2EACE;}
	.st1{display:none;fill:#262626;}
	.st2{display:none;}
</style>
<circle id="circle_old" class="st0" cx="114" cy="114" r="174.8"/>
<g>
	<path d="M190.3,16.2L190.3,16.2l0.1,0c5,0.8,7.9,4.2,7.9,9.3v153h19.7V15.3c-0.4-5.4-2.4-8.2-6.1-11.1c-2.9-2.3-6.3-3.4-10.3-3.4
		c-1.3,0-2.6-0.2-4,0l-0.1,0l-0.1,0c-3.8,0.4-8.4,2.1-10.9,3.8c-4.6,3.1-7.7,7-8.9,9.7l0-6V3.5h-17.1v175h19.7v-153
		c0-5.8,3.2-9.5,8.3-9.5C189.2,16,189.8,16.1,190.3,16.2z"/>
	<path d="M89.2,221.2c2.1,1.8,6.9,4.2,18,5.7c1.7,0,3.4,0.2,5.1,0.4c1.6,0.2,3.2,0.3,4.8,0.4c9.5,0,16.4-1.8,20.4-5.5
		c3.9-3.5,5.8-8.7,5.8-15.8V3.3h-17.1v4.9l0,0c-5.5-7.7-14.5-7.8-22.2-7.4C97.7,1.2,92.6,3.2,88,8.2l-0.1,0.2l-0.1,0.2
		c-1.7,2.4-2.7,5-2.7,8c0,0,0,143.1,0,146c0,2.9,1.1,5.9,1.1,5.9c1.7,7.3,5.5,9.9,12.5,10.5c1.8,0.1,6.8,0.3,10.4-0.1
		c12.8-1.2,14.5-5.2,14.5-5.2v29.7c0,4.9-2.9,8.1-7.9,9c-0.9,0.2-1.8,0.2-2.6,0.2c-5.1,0-8.3-3.4-8.3-8.8l0-4.4
		c-0.2,0-0.3,0.1-0.4,0.1c-1.7,0.3-3.4,0.4-5.2,0.4c-0.2,0-0.4,0-0.6,0c-5.9,0-10.3-1.9-13.5-4.6v13.2
		C85.1,214.7,86.5,219,89.2,221.2z M113.6,166h-0.3l-0.3,0c-5.2-0.9-8.2-4.3-8.2-9.3V25c0-5.1,3-8.5,8.3-9.3c0.5-0.1,1-0.1,1.5-0.1
		c0,0,0,0,0,0c2,0,4,0.7,5.6,2c2.2,1.6,3.5,4.2,3.5,7.1v132C123.6,162.5,119.9,166,113.6,166z"/>
	<path d="M43.8,180.9l0.1,0l0.1,0c1.3-0.1,2.5-0.2,3.8-0.4l0.1,0l0.1,0c8.2-1,13.9-2.9,16.9-5.8c2.8-2.7,4.2-6.7,4.2-12.3V124v-0.1
		l0-0.1c0.1-3-0.3-6-1.3-8.8l-0.1-0.3l-0.1-0.3c-0.3-1.8-1.1-3.6-2.2-5l-0.1-0.2l-0.1-0.2l-3.8-5.9L34.5,61.8l-2.7-3.9l-0.7-1v-1.2
		V26.3c0-5.6,3-9.3,8.3-10.1l0.3,0H40c2.8,0,5,0.8,6.7,2.4c1.7,1.7,2.5,4,2.5,7V52l19.7,30.3V22.8c0-9.4-3.1-22-30.1-22
		c-9.6,0-16.8,1.8-21.3,5.2c-4.2,3.2-6.2,7.7-6.2,13.6v35.9c0.2,2.9,0.9,5.6,2.2,8.2l1.4,2.6l4.5,7l23.1,37.2l4,6.4l0.2,0.3l0.1,0.3
		c1.2,2.9,1.9,6,2.2,9.1l0,0.2v0.2v29.9c0,5.6-3.4,9-8.8,9c-5.7,0-9.2-3.6-9.2-9.4v-29.8L11.4,94.3v68.1v0.1l0,0.1
		c-0.1,5.2,2.2,10.2,6.2,13.3l0,0l0,0c4.4,3.6,11.2,5.4,20.1,5.4C39.4,181.3,41.4,181.2,43.8,180.9z"/>
</g>
<path id="the_studio_of" class="st1" d="M62.7,14.5c3.2,0,5.8-1.8,5.8-5.1c0-2.8-2.1-4-4.6-5.2c-2-1-3.3-1.5-3.3-2.6
	c0-1,0.8-1.7,2.1-1.7C64.3,0,65.7,0.5,67,1.2L68-1.6c-1.6-1-3.4-1.5-5.2-1.5c-3.2,0-5.6,1.9-5.6,4.9c0,2.9,2.2,4.1,4.6,5.2
	c1.9,0.9,3.3,1.4,3.3,2.6c0,1.2-0.9,1.9-2.4,1.9c-1.8-0.1-3.4-0.7-4.8-1.8l-1.2,2.8C58.5,13.8,60.6,14.5,62.7,14.5z M82.6,14.4
	c1.1,0,2.1-0.2,3-0.7v-3c-0.6,0.3-1.3,0.5-2,0.5c-0.9,0.1-1.7-0.5-1.8-1.4c0-0.2,0-0.3,0-0.5v-9h3.8v-3.1h-3.8v-4.6h-3.7v4.6h-1.8
	v3.1h1.8V10C78.2,13.4,80.1,14.4,82.6,14.4L82.6,14.4z M99.8,14.5c1.9,0,3.7-1.1,4.6-2.8v2.5h3.7v-17h-3.7V7.5
	c0,2.3-1.3,3.8-3.2,3.8s-3-1.3-3-3.7V-2.8h-3.7V8.5C94.5,12.2,96.4,14.5,99.8,14.5z M123.8,14.5c2.1,0,4-1.2,5-3v2.7h3.6V-9h-3.6
	v8.7c-1-1.8-2.9-2.9-5-2.9c-3.5,0-6.7,2.9-6.7,8.6v0.4C117.2,11.6,120.4,14.5,123.8,14.5z M124.8,11.3c-2.2,0-4-2.1-4-5.5V5.5
	c0-3.4,1.8-5.5,4-5.5c2.1,0,4,2.1,4,5.5v0.4C128.9,9.2,127,11.3,124.8,11.3L124.8,11.3z M142.4,14.2h3.7v-17h-3.7V14.2z M142.3-5.3
	h3.8v-3.6h-3.8V-5.3z M163.1,14.5c4.5,0,7.9-3.7,7.9-8.7V5.6c0-5-3.3-8.7-7.8-8.7c-4.5,0-7.9,3.7-7.9,8.7v0.3
	C155.3,10.9,158.6,14.5,163.1,14.5L163.1,14.5z M163.2,11.4c-2.5,0-4.3-2.3-4.3-5.5V5.5c0-3.2,1.7-5.5,4.2-5.5
	c2.5,0,4.3,2.3,4.3,5.5v0.3C167.4,9,165.7,11.4,163.2,11.4L163.2,11.4z"/>
<circle class="st2" cx="114" cy="114" r="114"/>
</svg>
